<svg 
  viewBox="0 0 94.5 156.231"
  class="logo">
  <g transform="translate(-159.5 -51.425)">
    <path 
      id="text" 
      d="M14.52-17.808V0H11.64V-1.656A4.642,4.642,0,0,1,9.8-.288,6.2,6.2,0,0,1,7.392.168,6.754,6.754,0,0,1,4.068-.648,5.863,5.863,0,0,1,1.752-2.964a6.928,6.928,0,0,1-.84-3.444,6.861,6.861,0,0,1,.84-3.432,5.885,5.885,0,0,1,2.316-2.3,6.754,6.754,0,0,1,3.324-.816,6.092,6.092,0,0,1,2.328.432,4.683,4.683,0,0,1,1.8,1.3v-6.576ZM7.752-2.4A3.858,3.858,0,0,0,9.7-2.892a3.556,3.556,0,0,0,1.368-1.4,4.3,4.3,0,0,0,.5-2.112,4.3,4.3,0,0,0-.5-2.112A3.556,3.556,0,0,0,9.7-9.924a3.858,3.858,0,0,0-1.944-.492,3.858,3.858,0,0,0-1.944.492A3.556,3.556,0,0,0,4.44-8.52a4.3,4.3,0,0,0-.5,2.112A4.3,4.3,0,0,0,4.44-4.3a3.556,3.556,0,0,0,1.368,1.4A3.858,3.858,0,0,0,7.752-2.4ZM24.48-10.944q1.3-2.016,4.56-2.016V-10.1a3.809,3.809,0,0,0-.7-.072,3.623,3.623,0,0,0-2.736,1.02,4.068,4.068,0,0,0-.984,2.94V0h-3V-12.816H24.48ZM40.392.168a7.271,7.271,0,0,1-3.5-.84,6.125,6.125,0,0,1-2.436-2.34,6.608,6.608,0,0,1-.876-3.4,6.544,6.544,0,0,1,.876-3.384,6.15,6.15,0,0,1,2.436-2.328,7.271,7.271,0,0,1,3.5-.84,7.322,7.322,0,0,1,3.528.84,6.15,6.15,0,0,1,2.436,2.328,6.544,6.544,0,0,1,.876,3.384,6.608,6.608,0,0,1-.876,3.4A6.125,6.125,0,0,1,43.92-.672,7.322,7.322,0,0,1,40.392.168Zm0-2.568a3.665,3.665,0,0,0,2.736-1.1,3.975,3.975,0,0,0,1.08-2.9,3.975,3.975,0,0,0-1.08-2.9,3.665,3.665,0,0,0-2.736-1.1,3.626,3.626,0,0,0-2.724,1.1,4,4,0,0,0-1.068,2.9,4,4,0,0,0,1.068,2.9A3.626,3.626,0,0,0,40.392-2.4ZM60.384-12.96a6.8,6.8,0,0,1,3.348.816,5.885,5.885,0,0,1,2.316,2.3,6.861,6.861,0,0,1,.84,3.432,6.928,6.928,0,0,1-.84,3.444A5.863,5.863,0,0,1,63.732-.648a6.8,6.8,0,0,1-3.348.816,5.174,5.174,0,0,1-4.1-1.728V4.656h-3V-12.816h2.856v1.68A4.641,4.641,0,0,1,57.972-12.5,6.2,6.2,0,0,1,60.384-12.96ZM60.048-2.4a3.626,3.626,0,0,0,2.724-1.1,4,4,0,0,0,1.068-2.9,4,4,0,0,0-1.068-2.9,3.626,3.626,0,0,0-2.724-1.1,3.858,3.858,0,0,0-1.944.492,3.556,3.556,0,0,0-1.368,1.4,4.3,4.3,0,0,0-.5,2.112,4.3,4.3,0,0,0,.5,2.112,3.556,3.556,0,0,0,1.368,1.4A3.858,3.858,0,0,0,60.048-2.4ZM73.632.168A1.917,1.917,0,0,1,72.24-.4a1.914,1.914,0,0,1-.576-1.428,1.925,1.925,0,0,1,.564-1.44,1.927,1.927,0,0,1,1.4-.552,1.927,1.927,0,0,1,1.4.552,1.925,1.925,0,0,1,.564,1.44A1.914,1.914,0,0,1,75.024-.4,1.917,1.917,0,0,1,73.632.168Z" 
      transform="translate(173 203)" 
      fill="currentColor"
    />
    <path 
      id="icon"
      d="M50.726,2.69,83.8,35.766a46.75,46.75,0,1,1-66.093,0Z" 
      transform="translate(155.995 49.235)" 
      fill="none" 
      stroke="currentColor"
      stroke-linecap="round" 
      stroke-linejoin="round" 
      stroke-width="3"
    />
  </g>
</svg>
